<?xml version="1.0" standalone="no"?>
<!DOCTYPE svg PUBLIC "-//W3C//DTD SVG 20010904//EN"
 "http://www.w3.org/TR/2001/REC-SVG-20010904/DTD/svg10.dtd">
<svg version="1.0" xmlns="http://www.w3.org/2000/svg"
 width="1024.000000pt" height="1024.000000pt" viewBox="0 0 1024.000000 1024.000000"
 preserveAspectRatio="xMidYMid meet">

<g transform="translate(0.000000,1024.000000) scale(0.100000,-0.100000)"
fill="#000000" stroke="none">
<path d="M0 5120 l0 -5120 5120 0 5120 0 0 5120 0 5120 -5120 0 -5120 0 0
-5120z m5465 3161 c171 -28 207 -35 320 -63 124 -31 142 -36 286 -87 231 -81
415 -171 595 -291 303 -203 541 -417 749 -674 153 -190 270 -382 394 -650 211
-456 295 -856 295 -1396 0 -265 -14 -408 -60 -620 -24 -109 -94 -364 -113
-413 -5 -12 -28 -71 -51 -130 -24 -59 -50 -111 -59 -116 -9 -5 -34 -12 -56
-15 -22 -4 -49 -10 -61 -12 -22 -6 -21 -9 -15 109 1 10 6 15 11 12 7 -4 6 -13
-1 -26 -6 -12 -9 -23 -6 -25 7 -7 50 98 49 119 0 9 3 17 8 17 14 0 42 104 34
126 -4 14 -4 16 4 5 8 -11 13 -2 24 35 15 51 14 69 -2 44 -6 -9 -10 -10 -10
-3 0 6 8 18 18 25 10 7 21 27 25 43 l6 30 -12 -27 c-6 -16 -14 -28 -19 -28
-15 0 -47 39 -38 45 6 4 10 1 10 -4 0 -6 7 -11 15 -11 8 0 15 5 15 10 0 6 -4
10 -10 10 -5 0 -10 18 -10 40 l0 40 -60 0 c-55 0 -60 2 -61 23 -2 34 2 52 12
55 12 5 11 82 -1 82 -5 0 -10 -18 -10 -40 0 -23 -5 -40 -11 -40 -8 0 -10 17
-7 53 3 28 3 46 1 39 -4 -10 -8 -10 -21 0 -18 15 -22 15 -34 -4 -6 -8 -7 -5
-3 12 39 178 57 595 36 802 -51 488 -223 946 -505 1343 -298 422 -776 763
-1326 948 -243 82 -467 112 -764 104 -318 -9 -572 -64 -903 -196 -165 -65
-436 -223 -583 -340 -75 -59 -318 -301 -382 -381 -56 -69 -218 -303 -218 -315
0 -2 -18 -34 -40 -70 -150 -245 -288 -639 -336 -960 -20 -138 -23 -521 -5
-685 14 -135 72 -426 106 -538 24 -80 84 -246 107 -296 26 -59 104 -212 123
-241 79 -126 158 -242 211 -311 34 -45 60 -85 56 -90 -4 -4 1 -4 10 -1 12 4
15 2 11 -9 -3 -7 -13 -14 -23 -14 -22 0 -39 22 -21 28 8 3 4 15 -14 37 -14 19
-25 39 -25 45 0 7 -8 10 -20 7 -12 -3 -18 -1 -14 5 3 5 -3 18 -15 29 -24 23
-31 24 -31 4 0 -8 5 -14 11 -12 6 1 14 -4 16 -10 3 -7 -2 -13 -11 -13 -21 0
-20 -29 1 -52 11 -13 12 -18 3 -18 -9 0 -9 -4 -2 -12 6 -7 10 -17 10 -22 1 -5
13 -15 29 -23 l28 -13 -35 6 c-19 4 -60 12 -90 19 -44 11 -49 14 -25 16 24 1
26 3 8 6 -13 2 -23 11 -23 20 0 16 -35 15 -85 -2 -16 -5 -17 -5 -5 4 8 5 11
13 7 17 -3 4 -13 1 -22 -6 -10 -8 -27 -10 -52 -4 -21 4 -31 9 -23 11 9 2 21
13 29 25 12 20 11 20 -26 14 -32 -5 -34 -4 -13 5 13 5 36 7 50 3 14 -3 19 -9
12 -11 -7 -3 -17 -13 -22 -24 -9 -16 -7 -19 15 -19 15 0 24 4 20 10 -3 5 3 10
14 10 25 0 18 26 -10 35 -10 4 -18 11 -16 18 1 6 -13 16 -31 22 -26 9 -39 24
-60 66 -15 30 -26 62 -24 72 2 9 -2 17 -8 17 -10 0 -9 4 0 15 10 12 10 15 -4
15 -18 0 -21 -21 -5 -37 8 -8 4 -17 -12 -32 -13 -11 -28 -21 -35 -21 -10 0
-59 -120 -51 -125 1 -1 11 -7 22 -13 17 -10 17 -11 3 -12 -9 0 -19 4 -22 9 -3
5 -14 7 -24 4 -26 -6 -206 53 -225 75 -10 10 -17 31 -17 46 0 22 7 30 43 45
59 26 138 41 224 44 73 2 77 4 73 42 -6 63 -66 101 -222 140 -37 9 -73 22 -82
28 -8 7 -31 53 -51 102 -159 394 -225 746 -225 1192 0 306 24 497 96 786 160
640 484 1187 945 1596 131 117 136 121 259 210 256 185 530 323 835 421 176
56 349 91 615 124 66 8 545 -2 615 -13z m269 -2206 c322 -24 401 -38 492 -90
22 -13 52 -41 66 -62 32 -50 143 -270 203 -403 112 -250 124 -290 86 -290 -14
0 -25 14 -40 53 -56 147 -261 574 -296 615 -60 72 -132 92 -415 117 -477 42
-962 42 -1449 0 -238 -20 -289 -31 -347 -68 -59 -39 -82 -76 -185 -297 -190
-408 -188 -405 -209 -408 -13 -2 -20 2 -20 13 0 34 68 189 182 416 150 299
181 334 333 367 72 16 404 43 675 56 149 7 728 -5 924 -19z m-644 -145 l0 -70
-192 0 c-197 0 -630 -32 -703 -51 -64 -17 -87 -41 -144 -146 -91 -165 -162
-287 -186 -318 -32 -43 -40 -74 -21 -81 8 -3 84 1 168 10 205 21 649 38 883
34 l190 -3 3 -67 c3 -61 1 -69 -27 -100 -41 -47 -47 -78 -22 -110 l21 -26 -87
-7 c-253 -18 -563 -48 -681 -66 -143 -22 -198 -40 -250 -84 -18 -15 -34 -26
-36 -24 -1 2 -13 33 -25 68 -30 82 -102 201 -146 240 -19 17 -53 41 -76 53
-37 21 -40 26 -35 56 3 19 45 118 95 220 49 103 112 234 139 292 27 58 64 120
82 138 56 55 127 67 570 92 107 6 213 12 235 14 22 1 86 3 143 4 l102 2 0 -70z
m355 60 c280 -13 563 -37 639 -56 69 -17 109 -43 140 -93 13 -20 59 -117 104
-216 44 -99 103 -226 131 -282 28 -56 51 -108 51 -116 0 -8 -18 -27 -40 -42
-92 -64 -170 -172 -201 -280 -11 -38 -23 -76 -25 -84 -3 -11 -13 -6 -37 16
-18 17 -42 36 -54 42 -65 33 -317 70 -704 102 l-266 23 14 34 c17 41 5 81 -34
112 -22 17 -24 25 -21 87 l3 68 235 3 c325 4 900 -27 998 -54 30 -9 28 2 -12
66 -19 30 -76 136 -128 234 -110 213 -132 239 -208 255 -88 17 -396 41 -642
50 -125 4 -231 10 -234 14 -9 9 -17 94 -11 112 8 18 10 18 302 5z m-321 -146
c10 -4 16 -18 16 -35 l0 -29 68 0 c40 0 73 -5 80 -12 16 -16 16 -115 0 -119
-7 -2 -89 -2 -183 1 l-170 5 -3 37 c-5 62 8 75 87 83 69 7 69 7 76 41 6 37 6
37 29 28z m-1659 -334 c48 -11 75 -41 75 -84 0 -45 -30 -73 -86 -82 -57 -8
-216 3 -249 18 -29 13 -48 56 -40 91 8 31 24 45 62 57 38 11 189 12 238 0z
m3533 -6 c34 -7 62 -40 62 -75 0 -75 -40 -94 -208 -94 -123 0 -124 0 -148 28
-43 51 -22 128 39 142 54 12 193 12 255 -1z m-3510 -227 c44 -45 50 -57 30
-57 -14 0 -98 79 -98 92 0 20 29 5 68 -35z m3277 -6 c-33 -35 -75 -59 -75 -43
0 15 76 82 92 82 15 0 12 -8 -17 -39z m-3125 -82 c93 -20 229 -147 276 -259
22 -50 43 -133 36 -144 -2 -5 -20 21 -39 57 -43 81 -87 127 -150 158 -69 34
-206 34 -276 0 -69 -34 -149 -111 -179 -173 -40 -82 -48 -143 -48 -358 l0
-200 -27 0 c-54 0 -53 -5 -54 301 0 256 8 391 27 445 13 36 76 104 120 130
105 61 180 72 314 43z m3194 -9 c90 -28 165 -96 198 -179 20 -50 22 -78 26
-261 2 -113 1 -265 -3 -337 l-7 -133 -42 0 -42 0 1 238 0 237 -32 67 c-39 82
-106 151 -181 186 -75 35 -182 36 -258 3 -53 -23 -133 -97 -178 -165 -23 -35
-26 -36 -26 -15 0 38 65 175 110 234 79 103 197 159 315 150 28 -2 81 -13 119
-25z m-1694 -90 c24 -24 24 -30 7 -54 -16 -21 -55 -18 -70 6 -14 21 6 68 28
68 8 0 24 -9 35 -20z m-1416 -121 c184 -68 246 -335 117 -498 -48 -61 -147
-106 -231 -106 -87 0 -175 46 -231 120 -50 67 -59 93 -59 178 0 58 5 83 28
132 76 159 229 230 376 174z m3002 -8 c106 -48 186 -169 188 -286 1 -91 -20
-148 -77 -211 -73 -81 -113 -99 -217 -99 -98 0 -144 19 -211 86 -95 95 -116
231 -54 352 35 70 117 149 177 171 52 19 133 13 194 -13z m-1271 -26 c548 -42
683 -72 734 -164 23 -42 23 -43 8 -129 -33 -196 -109 -322 -213 -355 -88 -28
-834 -42 -1324 -25 -438 15 -434 15 -494 75 -57 56 -136 271 -136 370 0 55 41
115 98 142 63 31 239 54 682 90 171 14 431 12 645 -4z m-1475 -259 c0 -36 45
-182 78 -257 16 -36 44 -82 61 -101 17 -20 31 -38 31 -42 0 -3 -123 -5 -272
-4 l-273 3 -3 23 c-3 18 1 22 26 22 17 0 58 9 93 20 126 39 221 160 235 298 7
59 24 88 24 38z m2295 -83 c24 -128 165 -258 302 -279 33 -5 43 -11 43 -25 0
-19 -8 -19 -257 -14 -142 3 -262 5 -266 5 -5 0 8 20 28 44 37 45 108 206 121
271 8 45 20 45 29 -2z m1368 -89 c-3 -8 -10 -11 -15 -8 -6 4 -6 9 2 14 9 5 9
9 1 14 -6 4 -11 13 -11 19 0 7 7 4 15 -6 7 -11 11 -25 8 -33z m-39 21 c-4 -8
-1 -22 6 -30 10 -12 10 -15 -2 -15 -10 0 -18 -13 -21 -32 -3 -18 -9 -42 -13
-52 -6 -15 -4 -18 8 -13 12 4 14 1 10 -16 -3 -12 -7 -16 -10 -9 -8 26 -22 -2
-22 -46 0 -34 -3 -43 -10 -32 -8 12 -10 8 -11 -15 -1 -18 -3 -23 -6 -12 -3 10
-1 26 3 35 4 9 9 24 10 32 1 8 11 51 23 94 11 44 21 90 21 103 0 13 4 23 10
23 5 0 7 -7 4 -15z m-4284 -30 c0 -8 26 -41 58 -73 43 -44 72 -64 120 -81 52
-20 62 -27 62 -47 0 -24 0 -24 -119 -24 -66 0 -122 3 -124 8 -3 4 -8 60 -12
126 -6 87 -5 117 4 112 6 -4 11 -14 11 -21z m3596 -97 c-12 -139 0 -128 -132
-128 -95 0 -114 3 -114 15 0 8 0 18 -1 22 0 4 26 16 57 26 68 22 129 64 164
112 14 19 27 35 29 35 2 0 1 -37 -3 -82z m727 -55 c3 -59 1 -103 -4 -103 -5 0
-9 18 -9 40 0 22 -4 40 -10 40 -8 0 -4 86 6 119 8 25 11 7 17 -96z m117 -39
c0 -17 -22 -14 -28 4 -2 7 3 12 12 12 9 0 16 -7 16 -16z m-183 -26 c-3 -8 -6
-5 -6 6 -1 11 2 17 5 13 3 -3 4 -12 1 -19z m213 -18 c0 -5 -7 -10 -15 -10 -8
0 -15 5 -15 10 0 6 7 10 15 10 8 0 15 -4 15 -10z m-278 -62 c-6 -6 -7 0 -4 19
5 21 7 23 10 9 2 -10 0 -22 -6 -28z m278 38 c0 -3 -4 -8 -10 -11 -5 -3 -10 -1
-10 4 0 6 5 11 10 11 6 0 10 -2 10 -4z m-2340 -25 c388 2 923 4 1190 4 l485 0
3 -27 3 -28 -1693 -1 c-931 0 -1841 -1 -2023 -2 -310 -2 -330 -1 -333 16 -2
10 2 25 9 34 12 14 96 14 834 7 451 -4 1137 -6 1525 -3z m2350 -21 c0 -5 -5
-10 -11 -10 -5 0 -7 5 -4 10 3 6 8 10 11 10 2 0 4 -4 4 -10z m-2222 -167 l-3
-98 -452 -3 -453 -2 0 100 0 100 455 0 456 0 -3 -97z m818 77 l734 0 0 -28 c0
-15 -7 -38 -16 -50 l-15 -22 -735 0 -734 0 0 56 c0 47 3 55 16 50 9 -3 346 -6
750 -6z m1371 -12 c-3 -8 -6 -5 -6 6 -1 11 2 17 5 13 3 -3 4 -12 1 -19z
m-3137 -38 l0 -50 -722 1 c-398 0 -743 4 -767 7 -39 6 -46 11 -53 37 -4 17 -6
36 -3 43 3 9 168 12 775 12 l770 0 0 -50z m2811 -43 c-10 -9 -11 -8 -5 6 3 10
9 15 12 12 3 -3 0 -11 -7 -18z m-24 -59 c-3 -8 -6 -5 -6 6 -1 11 2 17 5 13 3
-3 4 -12 1 -19z m303 18 c0 -3 -4 -8 -10 -11 -5 -3 -10 -1 -10 4 0 6 5 11 10
11 6 0 10 -2 10 -4z m-5890 -49 c91 -26 470 -135 585 -169 l70 -21 -75 -13
c-102 -18 -128 -31 -149 -73 -10 -20 -58 -157 -106 -306 -48 -148 -89 -272
-91 -274 -1 -1 -92 27 -201 63 -109 36 -206 66 -215 66 -9 0 -20 5 -23 10 -4
6 63 79 149 163 86 84 156 156 156 161 0 4 -22 55 -50 113 -27 58 -50 106 -50
107 0 2 -22 43 -50 92 -27 49 -50 92 -50 97 0 10 6 9 100 -16z m6705 1 c-4
-11 -19 -42 -34 -67 -14 -25 -58 -110 -96 -189 l-69 -143 158 -158 157 -157
-43 -13 c-97 -28 -277 -85 -342 -108 -38 -13 -72 -20 -76 -16 -4 4 -42 114
-85 243 -42 129 -89 260 -103 290 -31 64 -74 93 -164 112 -32 7 -58 16 -58 20
0 4 2 8 5 8 5 0 211 57 425 117 153 43 300 81 318 82 9 1 11 -6 7 -21z m-752
-284 c72 -17 127 -54 127 -87 0 -32 -91 -79 -210 -107 -49 -12 -54 -11 -64 6
-23 40 -76 190 -71 203 7 17 108 10 218 -15z m-4970 -171 c-13 -2 -33 -2 -45
0 -13 2 -3 4 22 4 25 0 35 -2 23 -4z m-495 -43 c85 -63 632 -206 1070 -280
505 -84 826 -117 1377 -141 487 -20 1145 6 1640 67 456 56 721 104 1035 189
407 111 451 126 497 168 l22 20 11 -29 c14 -37 137 -411 184 -563 20 -63 36
-125 36 -138 0 -101 -161 -159 -815 -292 -550 -112 -1191 -194 -1715 -221
-253 -13 -812 -13 -1060 0 -324 17 -724 58 -1075 110 -545 80 -1304 265 -1432
347 -43 28 -39 53 66 384 55 173 105 333 112 357 7 23 14 42 16 42 2 0 16 -9
31 -20z m369 4 c-3 -3 -12 -4 -19 -1 -8 3 -5 6 6 6 11 1 17 -2 13 -5z m434
-53 c-10 -17 -9 -21 4 -21 8 0 15 -5 15 -11 0 -6 -9 -8 -22 -4 -30 10 -47 25
-26 25 22 0 31 29 16 49 -11 15 -10 15 6 0 15 -14 16 -21 7 -38z m-184 -17
c-3 -3 -12 -4 -19 -1 -8 3 -5 6 6 6 11 1 17 -2 13 -5z m312 -45 c17 -17 31
-32 31 -33 0 -2 -11 -1 -25 2 -14 2 -23 8 -20 12 2 4 -6 6 -18 5 -12 -1 -35 2
-52 6 l-30 7 31 1 c18 0 34 7 38 16 7 20 10 20 45 -16z"/>
<path d="M7915 5160 c-3 -6 1 -7 9 -4 18 7 21 14 7 14 -6 0 -13 -4 -16 -10z"/>
<path d="M7942 4860 c0 -14 2 -19 5 -12 2 6 2 18 0 25 -3 6 -5 1 -5 -13z"/>
<path d="M7641 4734 c0 -11 3 -14 6 -6 3 7 2 16 -1 19 -3 4 -6 -2 -5 -13z"/>
<path d="M7921 4684 c0 -11 3 -14 6 -6 3 7 2 16 -1 19 -3 4 -6 -2 -5 -13z"/>
<path d="M7631 4634 c0 -11 3 -14 6 -6 3 7 2 16 -1 19 -3 4 -6 -2 -5 -13z"/>
<path d="M7672 4630 c0 -14 2 -19 5 -12 2 6 2 18 0 25 -3 6 -5 1 -5 -13z"/>
<path d="M7652 4620 c0 -14 2 -19 5 -12 2 6 2 18 0 25 -3 6 -5 1 -5 -13z"/>
<path d="M7846 4557 c3 -10 9 -15 12 -12 3 3 0 11 -7 18 -10 9 -11 8 -5 -6z"/>
<path d="M7865 4520 c-3 -5 -1 -10 4 -10 6 0 11 5 11 10 0 6 -2 10 -4 10 -3 0
-8 -4 -11 -10z"/>
<path d="M7760 4490 c0 -5 12 -10 28 -10 21 0 24 2 12 10 -20 13 -40 13 -40 0z"/>
<path d="M7846 4484 c-4 -9 -4 -19 -1 -22 3 -3 5 0 5 7 0 7 4 9 10 6 6 -3 7 1
4 9 -8 20 -10 20 -18 0z"/>
<path d="M7881 4484 c0 -11 3 -14 6 -6 3 7 2 16 -1 19 -3 4 -6 -2 -5 -13z"/>
<path d="M2677 3740 c3 -11 9 -20 15 -20 5 0 4 9 -2 20 -6 11 -12 20 -14 20
-2 0 -2 -9 1 -20z"/>
<path d="M2701 3703 c-7 -8 -10 -17 -6 -21 3 -3 10 0 15 8 8 13 10 13 10 1 0
-8 3 -12 6 -8 3 3 2 12 -3 20 -7 13 -10 13 -22 0z"/>
<path d="M2665 3619 c-9 -14 -2 -20 14 -10 8 6 9 11 3 15 -6 3 -14 1 -17 -5z"/>
<path d="M2991 3574 c0 -11 3 -14 6 -6 3 7 2 16 -1 19 -3 4 -6 -2 -5 -13z"/>
<path d="M3035 3520 c3 -5 11 -10 16 -10 6 0 7 5 4 10 -3 6 -11 10 -16 10 -6
0 -7 -4 -4 -10z"/>
<path d="M2880 3440 c0 -5 21 -10 46 -10 27 0 43 4 39 10 -3 6 -24 10 -46 10
-21 0 -39 -4 -39 -10z"/>
<path d="M3025 3350 c-16 -7 -17 -9 -3 -9 9 -1 20 4 23 9 7 11 7 11 -20 0z"/>
<path d="M4550 5223 c-162 -4 -472 -24 -540 -34 -87 -13 -100 -18 -100 -36 0
-17 -11 -18 255 11 77 8 230 20 340 25 435 23 454 24 405 32 -43 7 -153 8
-360 2z"/>
<path d="M5280 5223 c0 -7 54 -13 143 -17 345 -16 742 -48 826 -67 35 -8 47
-7 59 5 19 19 9 32 -30 40 -142 26 -998 60 -998 39z"/>
<path d="M3536 4918 c-47 -13 -111 -74 -137 -131 -37 -83 -16 -225 43 -293 88
-100 226 -106 331 -14 56 50 82 112 81 196 -1 84 -26 145 -79 192 -67 59 -144
75 -239 50z m146 -28 c113 -32 181 -190 133 -308 -17 -39 -76 -106 -110 -124
-93 -51 -225 -8 -274 90 -29 59 -43 132 -32 170 13 43 53 112 79 135 43 39
136 55 204 37z"/>
<path d="M3562 4797 c-26 -28 -28 -54 -5 -102 16 -34 16 -35 -9 -63 -30 -32
-43 -90 -19 -88 9 1 16 -6 16 -14 2 -29 17 -50 36 -50 15 0 19 7 19 37 0 33 1
35 18 21 43 -38 90 -25 137 36 43 56 48 90 21 150 -33 73 -64 96 -136 96 -46
0 -60 -4 -78 -23z"/>
<path d="M6535 4916 c-109 -48 -178 -194 -146 -312 14 -54 62 -124 104 -152
19 -12 59 -28 90 -34 233 -49 384 259 213 435 -66 69 -184 97 -261 63z m148
-27 c43 -12 111 -68 133 -111 49 -95 32 -203 -45 -279 -93 -94 -223 -85 -314
21 -65 76 -72 167 -20 263 30 55 66 84 126 103 53 16 72 17 120 3z"/>
<path d="M6553 4800 c-40 -18 -43 -22 -43 -57 0 -27 7 -45 25 -62 30 -28 32
-50 5 -79 -26 -28 -25 -44 3 -70 86 -81 220 -25 247 101 12 60 0 107 -37 145
-44 47 -127 56 -200 22z"/>
<path d="M4865 4873 c-22 -1 -103 -8 -180 -13 -316 -25 -510 -59 -551 -97 -25
-23 -26 -29 -21 -81 7 -65 34 -147 72 -224 58 -115 68 -119 365 -129 129 -4
301 -11 383 -14 l147 -7 0 56 c0 52 -2 57 -26 66 -84 32 -123 96 -124 199 0
95 27 145 96 179 42 20 54 31 54 49 0 22 -2 23 -87 21 -49 -1 -106 -3 -128 -5z
m35 -183 c0 -20 -7 -20 -324 -20 -178 0 -344 3 -370 6 -110 16 -25 24 267 27
171 1 338 3 370 5 51 2 57 0 57 -18z m10 -95 c0 -13 -46 -15 -354 -15 -195 0
-361 3 -370 6 -51 19 18 24 354 24 322 0 370 -2 370 -15z m-4 -106 c15 -16 -8
-17 -322 -12 -187 2 -345 6 -352 9 -7 2 -10 9 -6 15 5 8 101 10 335 8 288 -4
330 -6 345 -20z m94 -107 c20 -10 12 -11 -45 -7 -38 3 -191 7 -339 10 -148 3
-272 8 -275 11 -11 12 632 -3 659 -14z"/>
<path d="M5140 4855 c0 -18 8 -28 33 -39 76 -32 117 -101 117 -197 0 -85 -33
-145 -107 -191 -30 -18 -33 -24 -33 -70 l0 -51 188 8 c103 4 275 10 382 14
235 9 271 20 320 97 57 90 97 226 86 288 -8 43 -30 60 -110 80 -131 34 -605
86 -788 86 -87 0 -88 0 -88 -25z m929 -161 c22 -20 -50 -24 -379 -22 -328 3
-365 5 -368 19 -3 15 29 16 370 12 205 -3 375 -7 377 -9z m-21 -93 c27 -17
-19 -20 -310 -21 -443 -2 -428 -2 -428 15 0 13 47 15 363 15 199 0 368 -4 375
-9z m-28 -106 c0 -13 -39 -15 -292 -15 -161 0 -323 -3 -360 -7 -58 -5 -68 -4
-68 10 0 19 44 22 448 25 236 2 272 0 272 -13z m-155 -95 c-73 -9 -465 -22
-448 -14 11 5 338 21 448 21 l60 0 -60 -7z m-542 -27 c-18 -2 -48 -2 -65 0
-18 2 -4 4 32 4 36 0 50 -2 33 -4z"/>
<path d="M5026 4738 c-20 -18 -38 -45 -42 -60 -6 -28 -6 -28 45 -28 l52 0 -2
55 c-1 31 -6 58 -10 61 -5 3 -24 -10 -43 -28z"/>
<path d="M5130 4710 l0 -60 55 0 c50 0 55 2 55 23 -1 26 -14 44 -54 75 -47 36
-56 30 -56 -38z"/>
<path d="M4980 4574 c0 -37 20 -63 69 -89 l31 -16 0 61 c0 65 0 65 -62 74 -38
5 -38 4 -38 -30z"/>
<path d="M5153 4603 c-13 -5 -19 -143 -7 -143 3 0 19 9 35 21 51 36 77 110 43
123 -18 7 -53 7 -71 -1z"/>
<path d="M2498 3022 c-49 -121 -88 -224 -88 -230 0 -8 50 -32 69 -32 3 0 22
41 41 90 26 66 39 90 52 90 25 0 23 -34 -7 -108 -34 -84 -33 -98 11 -112 19
-7 36 -10 38 -8 10 17 56 180 56 202 0 15 10 36 23 49 26 24 57 105 57 148 0
38 -42 84 -93 102 -23 8 -49 18 -57 21 -12 5 -34 -41 -102 -212z m156 102 c20
-8 20 -25 -1 -69 -12 -26 -23 -35 -41 -35 -25 0 -25 7 4 78 14 35 15 35 38 26z"/>
<path d="M7525 3199 c-38 -15 -74 -30 -78 -31 -6 -3 147 -443 160 -457 3 -4
172 56 181 64 5 4 -26 75 -33 75 -3 0 -22 -7 -42 -15 -52 -22 -57 -20 -76 35
-18 51 -16 70 7 70 7 0 20 6 29 13 15 10 16 17 6 46 -12 34 -16 35 -74 16 -18
-5 -23 1 -38 42 -9 26 -17 51 -17 54 0 3 20 14 45 25 25 10 45 20 45 21 0 14
-31 73 -37 72 -4 -1 -39 -14 -78 -30z"/>
<path d="M2760 2928 c-41 -117 -76 -220 -78 -228 -3 -16 35 -40 62 -40 16 0
171 449 159 461 -5 5 -22 11 -38 14 l-30 6 -75 -213z"/>
<path d="M7253 3103 c-35 -10 -53 -21 -53 -31 0 -26 140 -452 149 -452 30 0
113 35 135 56 21 21 26 36 26 73 0 49 -26 117 -53 140 -11 9 -17 29 -17 56 0
61 -32 131 -72 155 -38 23 -46 23 -115 3z m98 -112 c23 -76 -10 -98 -35 -24
-20 59 -20 63 4 63 14 0 22 -11 31 -39z m68 -204 c13 -42 13 -50 1 -57 -19
-12 -24 -5 -44 54 -20 61 -20 58 6 54 17 -2 26 -15 37 -51z"/>
<path d="M3085 3048 c-8 -25 -34 -105 -74 -235 -23 -73 -45 -134 -50 -137 -4
-3 -16 0 -25 7 -14 10 -15 18 -7 40 15 40 14 44 -13 51 -13 3 -31 8 -39 12
-17 6 -37 -42 -37 -91 0 -88 128 -137 188 -72 17 19 132 370 132 404 0 6 -14
16 -31 22 -40 14 -39 14 -44 -1z"/>
<path d="M3216 3003 c-25 -86 -126 -443 -126 -447 0 -8 101 -36 131 -36 63 0
129 106 116 186 -5 26 0 43 18 70 26 38 41 109 32 147 -10 37 -43 64 -101 81
-67 20 -64 20 -70 -1z m94 -113 c0 -37 -22 -80 -41 -80 -23 0 -23 4 -3 63 11
32 20 44 30 40 8 -3 14 -13 14 -23z m-57 -205 c-3 -42 -23 -85 -39 -85 -17 0
-18 30 -2 82 14 47 44 50 41 3z"/>
<path d="M6968 3013 c-24 -6 -23 -18 8 -124 14 -50 24 -92 21 -95 -2 -2 -24
34 -48 81 -59 114 -59 113 -97 107 -41 -6 -41 -10 9 -197 22 -82 47 -181 56
-218 l17 -68 36 6 c19 4 37 9 39 11 2 2 -8 49 -23 105 -28 104 -30 129 -5 81
7 -15 32 -58 54 -95 39 -67 41 -69 74 -63 18 3 36 7 38 10 4 4 -45 181 -123
449 -5 17 -21 19 -56 10z"/>
<path d="M3416 2721 c-31 -126 -56 -233 -56 -238 0 -5 41 -17 91 -28 100 -20
109 -17 109 37 0 24 -4 27 -45 34 -25 3 -47 9 -50 13 -3 6 10 79 20 108 2 8
15 9 42 3 20 -5 39 -7 41 -5 2 2 7 19 12 39 8 35 7 36 -31 46 -21 6 -39 13
-39 15 0 2 5 27 11 55 11 53 13 54 72 41 35 -9 39 -7 48 17 18 46 9 55 -71 74
-41 9 -80 17 -86 18 -7 0 -35 -96 -68 -229z"/>
<path d="M6648 2931 c-37 -9 -69 -19 -72 -22 -3 -3 8 -66 24 -140 16 -74 40
-178 52 -231 16 -74 25 -98 37 -98 17 0 79 14 142 31 l37 9 -11 41 c-8 35 -13
40 -31 34 -46 -13 -84 -17 -89 -8 -3 5 -9 32 -13 60 l-6 50 36 7 c37 7 42 17
29 64 -5 22 -10 23 -48 18 l-42 -7 -12 45 c-16 64 -16 65 34 77 25 6 47 14 49
18 2 3 -1 21 -6 39 -10 37 -13 37 -110 13z"/>
<path d="M3706 2877 c-3 -12 -12 -96 -21 -187 -8 -91 -18 -190 -21 -221 -6
-64 -6 -64 75 -75 l49 -6 25 83 c14 46 30 100 36 119 8 27 9 13 5 -65 -3 -55
-7 -112 -10 -126 -5 -26 -3 -27 55 -34 34 -4 64 -8 68 -8 4 -1 15 27 24 63 10
36 30 110 45 165 60 224 63 239 45 247 -9 4 -26 7 -37 7 -19 1 -25 -11 -49
-101 -15 -57 -33 -123 -40 -148 -7 -25 -18 -65 -25 -88 -6 -24 -13 -42 -15
-40 -2 2 3 90 12 196 9 106 14 194 12 196 -2 2 -20 6 -40 10 l-35 6 -23 -82
c-13 -46 -36 -126 -51 -178 -16 -52 -31 -104 -33 -115 -11 -46 -6 49 10 212 9
95 15 174 12 176 -2 2 -19 7 -36 10 -28 6 -33 3 -37 -16z"/>
<path d="M6359 2865 c-53 -28 -55 -57 -21 -248 29 -162 33 -174 62 -199 69
-63 180 -12 180 82 0 35 -21 132 -31 144 -4 5 -29 5 -54 1 -46 -6 -47 -7 -41
-37 3 -17 12 -36 20 -42 8 -6 17 -27 20 -47 5 -29 3 -38 -10 -43 -10 -4 -22
-2 -27 3 -12 12 -66 292 -60 308 9 23 40 14 47 -12 6 -24 10 -25 44 -19 20 4
39 8 40 10 10 8 -23 76 -45 94 -30 23 -86 26 -124 5z"/>
<path d="M6193 2843 c-29 -4 -32 -7 -28 -31 3 -15 9 -54 15 -86 19 -112 11
-114 -34 -6 l-43 105 -34 -3 c-19 -2 -35 -5 -37 -7 -3 -3 59 -477 64 -483 1
-2 19 0 39 4 l37 7 -6 51 c-3 28 -9 76 -12 106 l-5 55 44 -100 44 -100 39 3
c21 2 40 5 40 5 5 5 -80 487 -85 485 -3 0 -20 -3 -38 -5z"/>
<path d="M4122 2588 c-18 -128 -32 -239 -32 -245 0 -8 15 -13 40 -13 22 0 40
1 41 3 0 1 15 109 32 239 l32 236 -29 6 c-15 3 -34 6 -40 6 -8 0 -23 -82 -44
-232z"/>
<path d="M5918 2803 c-21 -3 -28 -10 -28 -26 0 -28 49 -459 53 -463 1 -2 21 0
44 3 40 5 41 6 36 42 -40 316 -60 445 -68 446 -6 1 -22 0 -37 -2z"/>
<path d="M4416 2758 c-3 -18 -13 -100 -21 -183 -19 -188 -21 -195 -45 -195
-17 0 -20 7 -20 44 0 42 -1 44 -36 51 -20 3 -39 4 -42 0 -3 -3 -6 -30 -6 -60
-1 -46 3 -59 25 -81 48 -48 149 -39 179 15 8 15 52 421 46 428 0 0 -18 4 -38
8 -36 7 -37 6 -42 -27z"/>
<path d="M5631 2771 c-12 -8 -11 -41 3 -227 9 -121 16 -227 16 -236 0 -27 113
-25 158 2 58 35 63 63 43 240 -9 85 -22 165 -29 177 -7 13 -26 30 -42 38 -32
16 -126 20 -149 6z m119 -93 c8 -20 30 -220 30 -275 0 -23 -38 -39 -45 -20 -7
20 -31 307 -26 312 11 12 32 3 41 -17z"/>
<path d="M4584 2752 c-30 -26 -44 -56 -44 -97 0 -45 16 -83 69 -165 47 -72 54
-125 16 -125 -13 0 -21 8 -23 23 -3 18 -10 22 -42 22 -44 0 -55 -20 -35 -67
18 -42 52 -63 101 -63 114 0 147 128 61 241 -48 62 -69 106 -65 137 4 35 41
38 46 5 3 -19 10 -23 43 -23 35 0 39 2 39 25 0 34 -25 82 -49 95 -30 16 -94
11 -117 -8z"/>
<path d="M4816 2723 c-3 -21 -8 -131 -12 -245 l-6 -208 41 0 41 0 0 125 c0 69
4 125 8 125 4 0 13 -20 20 -45 9 -34 17 -45 32 -45 14 0 23 12 34 48 18 58 19
55 20 -93 l1 -120 38 -3 37 -3 0 163 c0 90 3 200 7 246 l6 82 -42 0 c-24 0
-43 -5 -46 -12 -2 -7 -14 -46 -26 -86 -12 -40 -24 -70 -27 -67 -4 3 -16 43
-27 88 l-21 82 -36 3 c-35 3 -36 2 -42 -35z"/>
<path d="M5171 2753 c-39 -4 -42 -6 -37 -26 3 -12 6 -123 6 -246 l0 -224 91 6
c50 4 94 9 98 11 4 3 5 21 3 40 l-4 36 -54 0 -54 0 0 60 0 60 40 0 40 0 0 45
0 45 -40 0 -40 0 0 55 0 55 50 0 50 0 0 45 0 45 -52 -2 c-29 -1 -73 -3 -97 -5z"/>
<path d="M5390 2702 c0 -33 3 -141 7 -241 5 -141 9 -184 20 -188 7 -3 52 -2
98 2 l85 7 0 39 0 39 -54 0 -54 0 -6 38 c-3 20 -8 110 -12 200 l-7 162 -38 0
-39 0 0 -58z"/>
<path d="M7233 2666 c-36 -12 -37 -14 -28 -56 7 -32 18 -36 61 -20 23 9 26 14
20 42 -9 43 -15 48 -53 34z"/>
</g>
</svg>
